<svg xmlns="http://www.w3.org/2000/svg" viewBox="0 0 120 120">
  <defs>
    <linearGradient id="legSide" x1="0%" y1="0%" x2="0%" y2="100%">
      <stop offset="0%" stop-color="#0A0A1F"/>
      <stop offset="50%" stop-color="#1E1B4B"/>
      <stop offset="100%" stop-color="#312E81"/>
    </linearGradient>
    <linearGradient id="legFrontL" x1="0%" y1="10%" x2="60%" y2="100%">
      <stop offset="0%" stop-color="#4C1D95"/>
      <stop offset="30%" stop-color="#7C3AED"/>
      <stop offset="65%" stop-color="#A855F7"/>
      <stop offset="100%" stop-color="#C026D3"/>
    </linearGradient>
    <linearGradient id="legFrontR" x1="40%" y1="10%" x2="100%" y2="100%">
      <stop offset="0%" stop-color="#1E1B4B"/>
      <stop offset="25%" stop-color="#4C1D95"/>
      <stop offset="65%" stop-color="#7C3AED"/>
      <stop offset="100%" stop-color="#A21CAF"/>
    </linearGradient>
    <linearGradient id="barTop" x1="0%" y1="0%" x2="100%" y2="0%">
      <stop offset="0%" stop-color="#A855F7"/>
      <stop offset="50%" stop-color="#D946EF"/>
      <stop offset="100%" stop-color="#9333EA"/>
    </linearGradient>
    <linearGradient id="barFront" x1="0%" y1="0%" x2="100%" y2="40%">
      <stop offset="0%" stop-color="#6D28D9"/>
      <stop offset="40%" stop-color="#A855F7"/>
      <stop offset="75%" stop-color="#C026D3"/>
      <stop offset="100%" stop-color="#6D28D9"/>
    </linearGradient>
  </defs>

  <rect width="120" height="120" rx="26" fill="#FAFAFA"/>

  <g transform="translate(3,13) scale(0.286)">
    <path d="M 200 30 C 200 90, 130 200, 50 280 L 25 300 C 110 195, 180 90, 188 36 Z" fill="url(#legSide)"/>
    <path d="M 200 30 C 200 90, 270 200, 350 280 L 375 300 C 290 195, 220 90, 212 36 Z" fill="url(#legSide)"/>
    <path d="M 80 188 C 130 162, 200 170, 260 192 S 320 240, 325 230 L 325 246 C 320 252, 260 205, 200 184 S 130 195, 80 202 Z" fill="url(#barTop)"/>
    <path d="M 80 202 C 130 195, 200 184, 260 205 S 320 252, 325 246 L 325 262 C 320 278, 260 232, 200 212 S 130 220, 80 222 Z" fill="url(#barFront)"/>
    <path d="M 200 30 C 200 90, 130 200, 50 280 L 180 280 C 200 200, 205 100, 200 30 Z" fill="url(#legFrontL)"/>
    <path d="M 200 30 C 200 90, 270 200, 350 280 L 220 280 C 200 200, 195 100, 200 30 Z" fill="url(#legFrontR)"/>
  </g>
</svg>
