<svg xmlns="http://www.w3.org/2000/svg" viewBox="0 0 120 120">
  <defs>
    <linearGradient id="legSide" x1="0%" y1="0%" x2="60%" y2="100%">
      <stop offset="0%" stop-color="#0A0A1F"/>
      <stop offset="40%" stop-color="#1E1B4B"/>
      <stop offset="80%" stop-color="#312E81"/>
      <stop offset="100%" stop-color="#3B0764"/>
    </linearGradient>
    <linearGradient id="legFront" x1="20%" y1="0%" x2="80%" y2="100%">
      <stop offset="0%" stop-color="#4C1D95"/>
      <stop offset="25%" stop-color="#7C3AED"/>
      <stop offset="50%" stop-color="#A855F7"/>
      <stop offset="75%" stop-color="#D946EF"/>
      <stop offset="100%" stop-color="#EC4899"/>
    </linearGradient>
    <linearGradient id="barTop" x1="0%" y1="0%" x2="100%" y2="0%">
      <stop offset="0%" stop-color="#F472B6"/>
      <stop offset="50%" stop-color="#FBCFE8"/>
      <stop offset="100%" stop-color="#F0ABFC"/>
    </linearGradient>
    <linearGradient id="barFront" x1="0%" y1="0%" x2="100%" y2="20%">
      <stop offset="0%" stop-color="#A21CAF"/>
      <stop offset="40%" stop-color="#D946EF"/>
      <stop offset="80%" stop-color="#EC4899"/>
      <stop offset="100%" stop-color="#BE185D"/>
    </linearGradient>
  </defs>

  <rect width="120" height="120" rx="26" fill="#FAFAFA"/>

  <g transform="translate(6,10) scale(0.27)">
    <path d="M 200 30 C 200 90, 130 220, 40 320 L 15 338 C 110 215, 180 95, 190 38 Z" fill="url(#legSide)"/>
    <path d="M 200 30 C 200 90, 130 220, 40 320 C 90 318, 150 320, 190 320 C 200 220, 205 110, 200 30 Z" fill="url(#legFront)"/>
    <path d="M 90 215 C 150 190, 250 195, 320 265 L 320 275 C 250 210, 150 205, 90 225 Z" fill="url(#barTop)"/>
    <path d="M 90 225 C 150 205, 250 210, 320 275 L 320 290 C 250 220, 150 215, 90 240 Z" fill="url(#barFront)"/>
    <path d="M 200 30 C 200 90, 270 220, 360 320 L 385 338 C 290 215, 220 95, 210 38 Z" fill="url(#legSide)"/>
    <path d="M 200 30 C 200 90, 270 220, 360 320 C 320 322, 250 320, 210 320 C 200 220, 195 110, 200 30 Z" fill="url(#legFront)"/>
  </g>
</svg>
