<svg xmlns="http://www.w3.org/2000/svg" viewBox="0 0 480 320">
  <defs>
    <linearGradient id="legSide" x1="0%" y1="0%" x2="60%" y2="100%">
      <stop offset="0%" stop-color="#0A0A1F"/>
      <stop offset="40%" stop-color="#1E1B4B"/>
      <stop offset="80%" stop-color="#312E81"/>
      <stop offset="100%" stop-color="#3B0764"/>
    </linearGradient>
    <linearGradient id="legFront" x1="20%" y1="0%" x2="80%" y2="100%">
      <stop offset="0%" stop-color="#4C1D95"/>
      <stop offset="25%" stop-color="#7C3AED"/>
      <stop offset="50%" stop-color="#A855F7"/>
      <stop offset="75%" stop-color="#D946EF"/>
      <stop offset="100%" stop-color="#EC4899"/>
    </linearGradient>
    <linearGradient id="barTop" x1="0%" y1="0%" x2="100%" y2="0%">
      <stop offset="0%" stop-color="#F472B6"/>
      <stop offset="50%" stop-color="#FBCFE8"/>
      <stop offset="100%" stop-color="#F0ABFC"/>
    </linearGradient>
    <linearGradient id="barFront" x1="0%" y1="0%" x2="100%" y2="20%">
      <stop offset="0%" stop-color="#A21CAF"/>
      <stop offset="40%" stop-color="#D946EF"/>
      <stop offset="80%" stop-color="#EC4899"/>
      <stop offset="100%" stop-color="#BE185D"/>
    </linearGradient>
    <linearGradient id="hubGrad" x1="0%" y1="0%" x2="0%" y2="100%">
      <stop offset="0%" stop-color="#A855F7"/>
      <stop offset="100%" stop-color="#7C3AED"/>
    </linearGradient>
  </defs>

  <g transform="translate(100,-1) scale(0.7)">
    <path d="M 200 30 L 50 320 L 15 338 L 175 45 Z" fill="url(#legSide)"/>
    <path d="M 200 30 L 190 320 L 50 320 Z" fill="url(#legFront)"/>
    <path d="M 130 210 Q 200 190 320 210 L 320 222 Q 200 202 130 222 Z" fill="url(#barTop)"/>
    <path d="M 130 222 Q 200 202 320 222 L 320 258 Q 200 238 130 258 Z" fill="url(#barFront)"/>
    <path d="M 200 30 L 350 320 L 385 338 L 225 45 Z" fill="url(#legSide)"/>
    <path d="M 200 30 L 350 320 L 210 320 Z" fill="url(#legFront)"/>
  </g>

  <text x="240" y="290" font-family="-apple-system, BlinkMacSystemFont, 'Segoe UI', Roboto, system-ui, sans-serif" font-weight="800" font-size="60" text-anchor="middle" letter-spacing="-2.2" fill="#1E1B4B">anma<tspan fill="url(#hubGrad)">Hub</tspan></text>
</svg>
